<mxfile host="app.diagrams.net" modified="2021-08-27T08:53:45.988Z" agent="5.0 (Windows NT 10.0; Win64; x64) AppleWebKit/537.36 (KHTML, like Gecko) Chrome/92.0.4515.159 Safari/537.36" etag="2Pjw7sYJvfgMcHDHs5vl" version="15.0.2" type="github">
  <diagram id="pEhky-bUOFqgnfHnHjAS" name="Page-1">
    <mxGraphModel dx="1609" dy="380" grid="1" gridSize="10" guides="1" tooltips="1" connect="1" arrows="1" fold="1" page="1" pageScale="1" pageWidth="827" pageHeight="1169" math="0" shadow="0">
      <root>
        <mxCell id="0" />
        <mxCell id="1" parent="0" />
        <mxCell id="3YQXQdjekinNhZ2VaOHb-7" value="APP" style="whiteSpace=wrap;html=1;aspect=fixed;fillColor=#d5e8d4;strokeColor=#82b366;" vertex="1" parent="1">
          <mxGeometry x="-2.5" y="180" width="225" height="225" as="geometry" />
        </mxCell>
        <mxCell id="3YQXQdjekinNhZ2VaOHb-2" value="App Server" style="rounded=1;whiteSpace=wrap;html=1;" vertex="1" parent="1">
          <mxGeometry x="50" y="200" width="120" height="60" as="geometry" />
        </mxCell>
        <mxCell id="3YQXQdjekinNhZ2VaOHb-3" value="Markting Server" style="rounded=1;whiteSpace=wrap;html=1;" vertex="1" parent="1">
          <mxGeometry x="50" y="320" width="120" height="60" as="geometry" />
        </mxCell>
        <mxCell id="3YQXQdjekinNhZ2VaOHb-10" value="Cloud" style="whiteSpace=wrap;html=1;aspect=fixed;fillColor=#fff2cc;strokeColor=#d6b656;" vertex="1" parent="1">
          <mxGeometry x="280" y="180" width="225" height="225" as="geometry" />
        </mxCell>
        <mxCell id="3YQXQdjekinNhZ2VaOHb-11" value="Push Server" style="rounded=1;whiteSpace=wrap;html=1;" vertex="1" parent="1">
          <mxGeometry x="312.5" y="200" width="160" height="40" as="geometry" />
        </mxCell>
        <mxCell id="3YQXQdjekinNhZ2VaOHb-12" value="token Sortage" style="rounded=1;whiteSpace=wrap;html=1;" vertex="1" parent="1">
          <mxGeometry x="312.5" y="360" width="160" height="30" as="geometry" />
        </mxCell>
        <mxCell id="3YQXQdjekinNhZ2VaOHb-13" value="Api" style="rounded=1;whiteSpace=wrap;html=1;" vertex="1" parent="1">
          <mxGeometry x="312.5" y="320" width="160" height="30" as="geometry" />
        </mxCell>
        <mxCell id="3YQXQdjekinNhZ2VaOHb-14" value="ROM" style="whiteSpace=wrap;html=1;aspect=fixed;fillColor=#f8cecc;strokeColor=#b85450;" vertex="1" parent="1">
          <mxGeometry x="560" y="180" width="225" height="225" as="geometry" />
        </mxCell>
        <mxCell id="3YQXQdjekinNhZ2VaOHb-5" value="Push Client" style="rounded=1;whiteSpace=wrap;html=1;" vertex="1" parent="1">
          <mxGeometry x="582.5" y="200" width="180" height="40" as="geometry" />
        </mxCell>
        <mxCell id="3YQXQdjekinNhZ2VaOHb-19" style="edgeStyle=orthogonalEdgeStyle;rounded=0;orthogonalLoop=1;jettySize=auto;html=1;exitX=0.5;exitY=1;exitDx=0;exitDy=0;" edge="1" parent="1" source="3YQXQdjekinNhZ2VaOHb-15" target="3YQXQdjekinNhZ2VaOHb-18">
          <mxGeometry relative="1" as="geometry" />
        </mxCell>
        <mxCell id="3YQXQdjekinNhZ2VaOHb-15" value="Push Service" style="rounded=1;whiteSpace=wrap;html=1;" vertex="1" parent="1">
          <mxGeometry x="680" y="310" width="97.5" height="30" as="geometry" />
        </mxCell>
        <mxCell id="3YQXQdjekinNhZ2VaOHb-16" value="AMS" style="rounded=1;whiteSpace=wrap;html=1;" vertex="1" parent="1">
          <mxGeometry x="570" y="310" width="97.5" height="30" as="geometry" />
        </mxCell>
        <mxCell id="3YQXQdjekinNhZ2VaOHb-25" style="edgeStyle=orthogonalEdgeStyle;rounded=0;orthogonalLoop=1;jettySize=auto;html=1;exitX=0.5;exitY=1;exitDx=0;exitDy=0;" edge="1" parent="1" source="3YQXQdjekinNhZ2VaOHb-18" target="3YQXQdjekinNhZ2VaOHb-24">
          <mxGeometry relative="1" as="geometry" />
        </mxCell>
        <mxCell id="3YQXQdjekinNhZ2VaOHb-18" value="Push.jar" style="rounded=1;whiteSpace=wrap;html=1;" vertex="1" parent="1">
          <mxGeometry x="680" y="360" width="97.5" height="30" as="geometry" />
        </mxCell>
        <mxCell id="3YQXQdjekinNhZ2VaOHb-22" value="" style="endArrow=classic;startArrow=classic;html=1;" edge="1" parent="1">
          <mxGeometry width="50" height="50" relative="1" as="geometry">
            <mxPoint x="220" y="292" as="sourcePoint" />
            <mxPoint x="280" y="292" as="targetPoint" />
          </mxGeometry>
        </mxCell>
        <mxCell id="3YQXQdjekinNhZ2VaOHb-23" value="" style="endArrow=classic;startArrow=classic;html=1;entryX=0;entryY=0.5;entryDx=0;entryDy=0;" edge="1" parent="1" target="3YQXQdjekinNhZ2VaOHb-14">
          <mxGeometry width="50" height="50" relative="1" as="geometry">
            <mxPoint x="505" y="292" as="sourcePoint" />
            <mxPoint x="540" y="292" as="targetPoint" />
          </mxGeometry>
        </mxCell>
        <mxCell id="3YQXQdjekinNhZ2VaOHb-24" value="PushCore.jar" style="rounded=1;whiteSpace=wrap;html=1;" vertex="1" parent="1">
          <mxGeometry x="680" y="430" width="97.5" height="30" as="geometry" />
        </mxCell>
      </root>
    </mxGraphModel>
  </diagram>
</mxfile>
